<?xml version="1.0" encoding="UTF-8"?>
<svg width="2036px" height="936px" viewBox="0 0 2036 936" version="1.1" xmlns="http://www.w3.org/2000/svg" xmlns:xlink="http://www.w3.org/1999/xlink">
    <!-- Generator: Sketch 58 (84663) - https://sketch.com -->
    <title>Splash Screen Strokes</title>
    <desc>Created with Sketch.</desc>
    <g id="Splash-Screen-Strokes" stroke="none" stroke-width="1" fill="none" fill-rule="evenodd">
        <rect fill="#00945B" x="0" y="0" width="2036" height="936"></rect>
        <path d="M48,-10 C40.5714286,7.17907294 17.047619,19.4498393 20.7619048,47.672602 C24.4761905,75.8953647 26.952381,93.0744376 -4,88.1661311" id="Stroke-1-" stroke="#FFFFFF" stroke-width="4" opacity="0.199999988"></path>
        <path d="M-7,112 C12,120 97,150 111,127 C125,104 64,78 73,30 C79,-2 88.6666667,-21 102,-27" id="Stroke-2" stroke="#FFFFFF" stroke-width="4" opacity="0.199999988"></path>
        <path d="M-13,128 C17,144 142,206 165,169 C188,132 137,90 127,47 C117,4 151,-55 188,11 C212.666667,55 228.333333,46.3333333 235,-15" id="Stroke-3" stroke="#FFFFFF" stroke-width="4" opacity="0.199999988"></path>
        <path d="M-22,159.145916 C17.3027523,177.731416 132,247 172.330275,226.928327 C224,202 187.614679,162.42571 205.082569,125.254711 C222.550459,88.0837121 278.229358,67.3116831 301.155963,29.0474192 C316.440367,3.53790998 327.721713,-16.8696974 335,-32.175403" id="Stroke-4" stroke="#FFFFFF" stroke-width="4" opacity="0.199999988"></path>
        <path d="M-22,185 C-9,190 24,211 88,253 C152,295 221,281 228,238 C235,195 230,127 296,123 C340,120.333333 379.333333,74.6666667 414,-14" id="Stroke-5" stroke="#FFFFFF" stroke-width="4" opacity="0.199999988"></path>
        <path d="M-72,247 C-74.6666667,206.333333 -55,201 -13,231 C50,276 65,311 123,311 C181,311 150.568278,350.894149 189,394 C227.431722,437.105851 235,507 271,477 C307,447 253.329473,341.130115 271,277 C288.670527,212.869885 305.152379,177.068957 360,154 C414.847621,130.931043 487,213 511,173 C535,133 469,32 485,-19" id="Stroke-6" stroke="#FFFFFF" stroke-width="4" opacity="0.199999988"></path>
        <path d="M-7,279 C26,309 102,336 135,401 C168,466 262,563 296,563 C330,563 328.530348,532.384829 333,474 C337.469652,415.615171 312,404 312,354 C312,304 305.732377,237.194797 372,205 C438.267623,172.805203 522.88909,269.626199 559,234 C595.11091,198.373801 536,89 521,58 C511,37.3333333 508,14.6666667 512,-10" id="Stroke-7" stroke="#FFFFFF" stroke-width="4" opacity="0.199999988"></path>
        <path d="M-4,335 C87,373 117,451 190,529 C306,648 353,642 353,572 C353,502 381,556.157816 381,460 C381,363.842184 314,303 353,267 C392,231 478,279 516,290 C554,301 580,321 593,361 C606,401 603,481 675,518 C763.613519,548.187023 783.005691,452.258443 819.9733,447.206214" id="Stroke-8" stroke="#FFFFFF" stroke-width="4" opacity="0.199999988" stroke-linecap="round"></path>
        <path d="M1187.76619,417.799253 C1274.20001,440.320496 1388.96843,436.054079 1439,405 C1497,369 1506,290 1678,301 C1850,312 1806,337 1904,301 C1969.33333,277 2019.66667,331.666667 2055,465" id="Stroke-8.1" stroke="#FFFFFF" stroke-width="4" opacity="0.199999988" stroke-linecap="round"></path>
        <path d="M-34,396 C1,423 66,453 48,473 C36,486.333333 5.66666667,486.333333 -43,473" id="Stroke-9" stroke="#FFFFFF" stroke-width="4" opacity="0.199999988"></path>
        <path d="M-22,523 C76,575 22,620 77,702 C132,784 121,867 45,813 C-5.66666667,777 -52.6666667,765.666667 -96,779" id="Stroke-10" stroke="#FFFFFF" stroke-width="4" opacity="0.199999988"></path>
        <path d="M-13,809 C44,832 113,958 154,894 C195,830 79,687 79,597 C79,507 164,560 184,582 C204,604 208,627 285,655 C362,683 366,737 409,737 C452,737 414,649 425,621 C436,593 490,624 526,597 C562,570 562,530 614,556 C769,643 844,599 859,698 C874,797 938,864 989,894 C1040,924 1089,935 1121,980" id="Stroke-11" stroke="#FFFFFF" stroke-width="4" opacity="0.199999988"></path>
        <path d="M-1,868.848833 C36.4089552,895.712401 258.944279,1075.12266 258.944279,1020.43611 C258.944279,965.749561 211.943284,942.723646 211.943284,889.955923 C211.943284,837.188199 182.20796,786.339302 153.431841,729.733926 C124.655721,673.128551 131.370149,621.320241 171.656716,644.346156 C211.943284,667.372072 239.760199,709.58625 294.434826,723.977448 C349.109453,738.368645 394.19204,848.701157 432.560199,848.701157 C470.928358,848.701157 490.112438,796.892847 474.765174,738.368645 C459.41791,679.844443 494.806965,699.372072 536,667 C577.193035,634.627928 569.300331,658.554734 645,667 C720.699669,675.445266 680.99403,673.128551 770.2,695.195053 C859.40597,717.261556 823.915423,835.269373 890.100498,889.955923 C934.223881,926.413622 958.523715,967.988192 963,1014.67963" id="Stroke-12" stroke="#FFFFFF" stroke-width="4" opacity="0.199999988"></path>
        <path d="M271,852 C263,817 266,817 245,799 C224,781 247,752 280,772 C313,792 327,816 320,852 C313,888 279,887 271,852 Z" id="Stroke-13" stroke="#FFFFFF" stroke-width="4" opacity="0.199999988"></path>
        <path d="M517,366 C471.221613,327.003596 459,289 418,304 C390.666667,314 386,341.666667 404,387 C425.333333,432.333333 429,467.333333 415,492 C394,529 427,568 466,568 C505,568 505.238378,548.683898 533,518 C560.761622,487.316102 586,480 580,442 C574,404 562.778387,404.996404 517,366 Z" id="Stroke-14" stroke="#FFFFFF" stroke-width="4" opacity="0.199999988"></path>
        <path d="M516.471226,414.698617 C473.629595,379.367505 465,340 446.020544,340.215922 C427.041089,340.433627 434.629179,386.416241 446.020544,426.157356 C457.41191,465.89847 457,499 489.814212,493 C522.628423,487 559.312857,450.029729 516.471226,414.698617 Z" id="Stroke-15" stroke="#FFFFFF" stroke-width="4" opacity="0.199999988"></path>
        <path d="M697,1026 C609,983 562,991 535,951 C508,911 554,894 554,846 C554,798 473,716 554,708 C635,700 633,794 723,820 C813,846 839,880 844,925 C849,970 842,1005 874,1020" id="Stroke-16" stroke="#FFFFFF" stroke-width="4" opacity="0.199999988"></path>
        <path d="M571,1036 C637,981 638,949 620,913 C602,877 584,828 650,864 C716,900 719,875 742,894 C765,913 791,942 791,977" id="Stroke-17" stroke="#FFFFFF" stroke-width="4" opacity="0.199999988"></path>
        <path d="M818,531 C811,521 806,510 789,531 C772,552 747,568 771,580 C795,592 824,565 824,556 C824,547 825,541 818,531 Z" id="Stroke-18" stroke="#FFFFFF" stroke-width="4" opacity="0.199999988"></path>
        <path d="M866.407267,550.667397 C860.84637,566.850681 838.424212,580.17072 847,602 C858,630 899,617 913,602 C924.959026,589.186758 936.188366,574.914146 917.392505,543.599442" id="Stroke-19" stroke="#FFFFFF" stroke-width="4" opacity="0.199999988" stroke-linecap="round"></path>
        <path d="M979.66438,567.98577 C961.423184,612.244716 868.87445,642.984077 920,710 C971,788 925,795 1125,902 C1325,1009 973,1039 992,1056" id="Stroke-20" stroke="#FFFFFF" stroke-width="4" opacity="0.199999988" stroke-linecap="round"></path>
        <path d="M1201.98857,454.180828 C1208.17779,455.830144 1214.81565,457.446627 1222,459 C1296,475 1353,466 1442,450 C1531,434 1516,396 1604,354 C1692,312 1721,411 1760,419 C1831.29039,433.623669 1839,510 1884,510 C1929,510 1952,433 2058,487" id="Stroke-20.1" stroke="#FFFFFF" stroke-width="4" opacity="0.199999988" stroke-linecap="round"></path>
        <path d="M1226,950 C1224.32389,948.839619 1267.63787,951.160004 1266,950 C1191.41705,897.17755 1129,849 1062,826 C995,803 952,731 947,694 C942,657 953,624 1002,617 C1028.27119,613.246973 1038.44499,585.635324 1034.98729,556.820271" id="Stroke-21" stroke="#FFFFFF" stroke-width="4" opacity="0.199999988" stroke-linecap="round"></path>
        <path d="M1175.74724,477.965051 C1210.92065,487.898667 1227.32513,495.406952 1328,501 C1454,508 1533,436 1621,419 C1660.60238,411.34954 1695.92889,438.213407 1725,452 C1760.52748,468.84844 1792.20097,491.302 1812,532 C1848,606 1862,636 1897,616 C1932,596 1923,528 1972,562 C2021,596 2030,667 2005,677 C1980,687 1945,714 1945,759 C1949,835 1777,889 1719,723 C1686,620 1623,617 1578,639 C1533,661 1529,693 1567,708 C1605,723 1614,813 1582,851 C1550,889 1512,891 1471,866 C1430,841 1420,871 1425,942" id="Stroke-21.1" stroke="#FFFFFF" stroke-width="4" opacity="0.199999988" stroke-linecap="round"></path>
        <path d="M1322,959 C1211,866 1150,809 1093,797 C1036,785 981,734 991,688 C1001,642 1067,639 1067,593 C1067,580.158115 1067.62349,567.004483 1067.73908,554.365897" id="Stroke-22" stroke="#FFFFFF" stroke-width="4" opacity="0.199999988" stroke-linecap="round"></path>
        <path d="M1368,942 C1328,901 1279,890 1253,851 C1227,812 1210,765 1146,765 C1082,765 1061,665 1107,608 C1143.59943,562.64853 1219.8298,623.522161 1301,638 C1391.9376,654.21999 1471,663 1471,638 C1471,610 1420,588 1348,583 C1276,578 1293,538 1240,527 C1193.53167,517.355629 1167.8185,530.003844 1143.9892,521.136281" id="Stroke-22.1" stroke="#FFFFFF" stroke-width="4" opacity="0.199999988" stroke-linecap="round"></path>
        <path d="M1342.87293,673.712431 C1322.71241,656.53866 1346.86344,597.801049 1343.61227,573.41062 C1336.84789,522.663767 1277.70927,538.682341 1256.20706,558.399696 C1223.494,588.397296 1219.58886,610.405112 1239.75204,673.999143 C1259.91521,737.593174 1335.4541,742.832036 1314.4541,779.832036 C1302.64202,800.643797 1279.0376,821.267261 1270.0536,868.356585 C1258.70818,927.823225 1267.19144,970.22746 1277.86131,980.446012 C1290.55701,992.604715 1338.26764,991.449416 1350.39038,960.432657 C1362.51311,929.415898 1321.7436,872.954876 1374.95371,817.405937 C1428.16381,761.856998 1440.12328,728.516373 1434.12328,690.516373 C1428.12328,652.516373 1388.65131,712.708835 1342.87293,673.712431 Z" id="Stroke-23" stroke="#FFFFFF" stroke-width="4" opacity="0.199999988" transform="translate(1331.472190, 763.557865) rotate(110.000000) translate(-1331.472190, -763.557865) "></path>
        <path d="M1370.36309,679.255359 C1364.01563,671.561531 1346.52155,662.227121 1333.85022,670.094151 C1321.1789,677.961181 1324.19638,702.858198 1330.1007,709.682356 C1336.00502,716.506514 1351.47529,715.657039 1361.15501,705.670614 C1370.83474,695.684188 1376.71055,686.949188 1370.36309,679.255359 Z" id="Stroke-24" stroke="#FFFFFF" stroke-width="4" opacity="0.199999988" transform="translate(1349.006876, 690.612801) scale(1, -1) rotate(31.000000) translate(-1349.006876, -690.612801) "></path>
        <path d="M1674.24571,731.454727 C1647.21787,709.126772 1638.06176,682.729252 1626.08803,682.865212 C1614.11431,683.003288 1605.1239,715.614804 1612.31047,740.729718 C1619.49703,765.844632 1639.99843,796.708029 1660.70019,792.916251 C1681.40196,789.124473 1701.27355,753.782683 1674.24571,731.454727 Z" id="Stroke-25" stroke="#FFFFFF" stroke-width="4" opacity="0.199999988" transform="translate(1648.556229, 738.049787) scale(-1, 1) rotate(-300.000000) translate(-1648.556229, -738.049787) "></path>
        <path d="M1621.00695,978 C1591.00695,926 1586.00695,900 1611.00695,900 C1636.00695,900 1648.00695,957 1648.00695,984" id="Stroke-26" stroke="#FFFFFF" stroke-width="4" opacity="0.199999988" stroke-linecap="round"></path>
        <path d="M1797.2392,993 C1771.30942,945.285714 1769.23503,924.540373 1716.33828,902.757764 C1632.32578,872.677019 1648.92084,826 1675.88781,826 C1702.85479,826 1676.925,878.900621 1740.19368,866.453416 C1803.46235,854.006211 1835.61528,877.863354 1887.47485,877.863354 C1939.33442,877.863354 1935.18565,854.006211 2024.38411,872.677019 C2083.84974,885.124224 2136.05504,876.134576 2181,845.708075" id="Stroke-27" stroke="#FFFFFF" stroke-width="4" opacity="0.199999988" stroke-linecap="round"></path>
        <path d="M2108.23289,667 C2033.42665,750.637931 1993.31317,724.568966 1993.31317,761.5 C1993.31317,798.431034 1952.11553,800.603448 1990.06072,820.155172 C2015.35752,833.189655 2062.33728,845.137931 2131,856" id="Stroke-28" stroke="#FFFFFF" stroke-width="4" opacity="0.199999988" stroke-linecap="round"></path>
        <path d="M1775,557 C1735,510 1696,597 1706,618 C1716,639 1733,644 1749,691 C1765,738 1810.32098,775.050033 1812,776 C1846.96449,795.78246 1892.09164,785.487928 1894,754 C1896,721 1948,700 1935,664 C1922,628 1874,697 1832,639 C1790,581 1815,604 1775,557 Z" id="Stroke-29" stroke="#FFFFFF" stroke-width="4" opacity="0.199999988" stroke-linecap="round"></path>
        <path d="M1824,350 C1773,330 1739,377 1776,387 C1813,397 1852,447 1875,465 C1898,483 1917.54805,450.592585 1944,434 C1970.45195,417.407415 2018,442 1992,394 C1966,346 1950,340 1928,340 C1906,340 1875,370 1824,350 Z" id="Stroke-30" stroke="#FFFFFF" stroke-width="4" opacity="0.199999988"></path>
        <path d="M1912.92198,399.473134 C1903.44689,387.933229 1877.31135,377.23758 1869.93214,380.642089 C1862.55293,384.046599 1870.39086,404.79372 1879.20446,415.029214 C1888.01805,425.264708 1900.74508,429.346332 1908.70729,425.672848 C1916.6695,421.999364 1922.39706,411.013039 1912.92198,399.473134 Z" id="Stroke-31" stroke="#FFFFFF" stroke-width="4" opacity="0.199999988" transform="translate(1892.426230, 403.500000) scale(-1, 1) translate(-1892.426230, -403.500000) "></path>
        <path d="M2019,-65 C1923,42 1974,26 1939,81 C1904,136 1859,246 1939,260 C2019,274 2024,305 2036,337 C2044,358.333333 2103.66667,378 2215,396" id="Stroke-32" stroke="#FFFFFF" stroke-width="4" opacity="0.199999988"></path>
        <path d="M2104,22 C2005.63855,29.5648536 2007.53012,32.4016736 1990.50602,87.2468619 C1973.48193,142.09205 1947,141.146444 1947,175.188285 C1947,209.230126 2030.22892,248 2060.49398,248" id="Stroke-33" stroke="#FFFFFF" stroke-width="4" opacity="0.199999988"></path>
        <path d="M554,-55 C535,-10 535.589765,-25.2827847 554,54 C572.410235,133.282785 641,128 616,212 C591,296 662.658414,398.217402 712,417 C761.341586,435.782598 874,329 946,346 C1018,363 1108,332 1222,361 C1259,370 1371,383 1393,346 C1415,309 1423,214 1490,245 C1557,276 1603,272 1638,262 C1673,252 1694,235 1740,256 C1786,277 1889,165 1866,118 C1843,71 1859,44 1889,20 C1909,4 1909,-28.3333333 1889,-77" id="Stroke-34" stroke="#FFFFFF" stroke-width="4" opacity="0.199999988"></path>
        <path d="M784,-65 C729.383765,-14.5242028 739.720898,42.5846092 700,31 C660.279102,19.4153908 591,6 591,54 C591,102 664.447668,77.4956543 657,171 C649.552332,264.504346 713.218428,353.845257 784,334 C854.781572,314.154743 892.591134,293.552751 953,301 C1013.40887,308.447249 1070.09913,323.781139 1093,274 C1115.90087,224.218861 1130.72873,181 1187,181 C1243.27127,181 1248.01957,139.213077 1300.98077,147.487798 C1353.94197,155.762519 1389.52527,168.1746 1410.21324,88.73728 C1430.90121,9.2999598 1459.03684,116.871331 1488,-16.3516749" id="Stroke-35" stroke="#FFFFFF" stroke-width="4" opacity="0.199999988"></path>
        <path d="M716.600862,76.2736417 C704.303414,61.296318 670.382817,47.4147309 660.805542,51.8333497 C651.228266,56.2519685 661.400908,83.1790839 672.839826,96.4634481 C684.278745,109.747812 700.7968,115.04524 711.130733,110.277526 C721.464665,105.509812 728.89831,91.2509653 716.600862,76.2736417 Z" id="Stroke-36" stroke="#FFFFFF" stroke-width="4" opacity="0.199999988"></path>
        <path d="M844.453502,28.0221235 C807.362717,20.8507686 755.890975,41.0949903 747.500841,111.128205 C739.110707,181.161421 718.168412,250.192028 748,267 C777.831588,283.807972 845.76142,243.995964 914,267 C982.23858,290.004036 1038.58212,254.760042 1039.29106,220.380021 C1040,186 947.899272,186.315121 902,141 C856.100728,95.6848789 881.544286,35.1934784 844.453502,28.0221235 Z" id="Stroke-37" stroke="#FFFFFF" stroke-width="4" opacity="0.199999988"></path>
        <path d="M905,187 C848.731501,171.637973 863.624875,141.955952 854,112 C844.375125,82.0440477 824,67 809,76 C794,85 774,108 774,181 C774,254 819,208 880,231 C941,254 1012.63697,215.073025 905,187 Z" id="Stroke-38" stroke="#FFFFFF" stroke-width="4" opacity="0.199999988"></path>
        <path d="M867,-48 C920,54 896,103 991,132 C1086,161 1130,114 1173,125 C1216,136 1227,86 1284,99 C1341,112 1392,45 1424,-10" id="Stroke-39" stroke="#FFFFFF" stroke-width="4" opacity="0.199999988"></path>
        <path d="M952,-19 C974,13 958,22 965,48 C972,74 992,88 1020,84 C1048,80 1068,47 1058,20 C1051.33333,2 1034,-13.6666667 1006,-27" id="Stroke-40" stroke="#FFFFFF" stroke-width="4" opacity="0.199999988"></path>
        <path d="M1013,25 C991,12 975,42 998,58 C1021,74 1035,38 1013,25 Z" id="Stroke-41" stroke="#FFFFFF" stroke-width="4" opacity="0.199999988"></path>
        <path d="M1180,-32 C1171,-10 1168,24 1107,47 C1046,70 1102,112 1157,91 C1212,70 1225,51 1267,62 C1295,69.3333333 1333.33333,32.6666667 1382,-48" id="Stroke-42" stroke="#FFFFFF" stroke-width="4" opacity="0.199999988"></path>
        <path d="M1363,216 C1335.55597,195.18828 1296,200 1250,210 C1204,220 1196,214 1171,238 C1146,262 1122,306 1194,314 C1266,322 1242,289 1295,314 C1348,339 1358,325 1370,301 C1382,277 1390.44403,236.81172 1363,216 Z" id="Stroke-43" stroke="#FFFFFF" stroke-width="4" opacity="0.199999988"></path>
        <path d="M1332.57647,236.717584 C1301.28465,218.28777 1278.52696,260.818109 1311.24114,283.500957 C1343.95531,306.183804 1363.86829,255.147397 1332.57647,236.717584 Z" id="Stroke-44" stroke="#FFFFFF" stroke-width="4" opacity="0.199999988" transform="translate(1321.762135, 260.706592) scale(-1, 1) translate(-1321.762135, -260.706592) "></path>
        <path d="M1592,-48 C1515,73 1458,97 1458,142 C1458,187 1473.77425,206.926804 1541,219 C1608.22575,231.073196 1670,156 1703,186 C1736,216 1770.22276,213.63032 1817,136 C1863.77724,58.3696803 1781,0 1844,-48" id="Stroke-45" stroke="#FFFFFF" stroke-width="4" opacity="0.199999988"></path>
        <path d="M1548.0132,67.5768457 C1501.12579,111.349479 1493.31123,151.315796 1527.49996,167.492639 C1561.6887,183.669481 1590.85942,138.962284 1635.92709,133.235795 C1665.97221,129.418136 1697.23048,132.272873 1729.70191,141.800006 C1765.51868,155.122112 1783.42707,134.504567 1783.42707,79.9473725 C1783.42707,25.3901776 1754.12244,-14.2589465 1695.51317,-39 C1628.43813,2.8694751 1579.27147,38.3950903 1548.0132,67.5768457 Z" id="Stroke-46" stroke="#FFFFFF" stroke-width="4" opacity="0.199999988"></path>
        <path d="M1651,486 C1581,480 1431,522 1431,546 C1431,570 1485,575 1506,599 C1527,623 1555,585 1622,599 C1689,613 1721,492 1651,486 Z" id="Stroke-47" stroke="#FFFFFF" stroke-width="4" opacity="0.199999988" stroke-linecap="round"></path>
    </g>
</svg>