<?xml version="1.0" encoding="UTF-8"?>
<svg width="50px" height="50px" viewBox="0 0 50 50" version="1.1" xmlns="http://www.w3.org/2000/svg" xmlns:xlink="http://www.w3.org/1999/xlink">
    <!-- Generator: Sketch 58 (84663) - https://sketch.com -->
    <title>ic_poi_clothes</title>
    <desc>Created with Sketch.</desc>
    <g id="ic_poi_clothes" stroke="none" stroke-width="1" fill="none" fill-rule="evenodd">
        
        <g id="Icon">
            <path d="M24.4791,4 C16.14882,4 9.37086,10.77796 9.37086,19.10908 C9.37086,21.28216 9.81564,23.35696 10.69218,25.27636 C14.46966,33.54238 21.71214,42.26956 23.84238,44.74714 C24.00198,44.93236 24.23466,45.03904 24.47952,45.03904 C24.72438,45.03904 24.95706,44.93236 25.11666,44.74714 C27.24606,42.26998 34.48854,33.54322 38.26728,25.27636 C39.14424,23.35696 39.5886,21.28216 39.5886,19.10908 C39.58776,10.77796 32.8098,4 24.4791,4 Z" id="Shape" fill="#FFFFFF" fill-rule="nonzero"></path>
            <path d="M24.4791,26.95678 C20.15184,26.95678 16.63098,23.43592 16.63098,19.10866 C16.63098,14.78098 20.15184,11.26012 24.4791,11.26012 C28.80636,11.26012 32.32722,14.78098 32.32722,19.10866 C32.32764,23.43592 28.80678,26.95678 24.4791,26.95678 Z" id="Color" fill="#fe9801"></path>
        
        </g>
    </g>
</svg>